<svg xmlns="http://www.w3.org/2000/svg" viewBox="0 0 600 709"><path fill="#de2e29" d="M218.5 145h14l1 1h6l1 1 9 1 9 3 7 1 4 2h3l4 2h3l27 9h3l1 1 11 2 4 2h3l7 3 13 9 22 21 36 29 20.5 20.5 8 11 18 19 2 4v6l-3 7-16 22-12.5 12.5-18 9-9 3h-3l-4 2h-3l-4 2h-3l-12 4h-3l-4 2h-3l-12 4-3 2-5 1-3 2-5 1-3 2h-2l-31 15-2 2-15 7-4 3h-2l-15 8h-2l-8 4-12 4h-3l-9 3h-5l-1 1h-21q-1.1-2-4.5-1v-4.5l1-1v-5l1-1 2-11 2-4v-3l10-30q-1-4 1-5v-18l-1-1v-4l-1-1-1-6-9-18v-8l1-1v-3l2-6-2.5-3.5-5-1-13 6-10 6-5 1-12 6-15 10-26 26-.5-1.5 4-12 2-3 3-11 2-3v-2l3-5 2-7 6-12 4-12 3-5 2-7 8-18 1-5 5-11 10-30 9-14 13.5-13.5 13-9z" opacity=".996"/><path fill="#838282" d="m481.5 282 1.5.5-1.5.5zm10 0 1.5.5-1.5.5zm5 1 1.5.5-1.5.5zm7 2 1.5.5-1.5.5zm-30 1 .5.5-2.5 2.5-.5-.5zm37 1 1.5.5-1.5.5zm8 2 2.5.5-2.5.5zm12 3 .5 1.5h-1zm-475 57 2.5.5-2.5.5zm6 1 1.5.5-1.5.5zm-13 15 .5 2.5h-1zm522 2 .5 1.5h-1zm-485 1 .5 1.5h-1zm-53 6 2.5.5-2.5.5zm59 0 1.5.5-1.5.5zm-63 1 1.5.5-1.5.5zm69 0 1.5.5-1.5.5zm475 0 .5 1.5h-1zm-469 1 1.5.5-1.5.5zm6 1 1.5.5-1.5.5zm5 1 1.5.5-1.5.5zm-91 2 .5 2.5h-1zm104 3 3.5 3.5-.5.5-3.5-3.5zm447 1 .5 1.5h-1zm-539 5 2.5 2.5-.5.5-2.5-2.5zm540 0 .5 1.5h-1zm-238 1 1.5.5-1.5.5zm-3 1 1.5.5-1.5.5zm-201 1 .5 2.5h-1zm198 0 1.5.5-1.5.5zm-3 1 1.5.5-1.5.5zm248 1 .5 1.5h-1zm-444 5 .5 1.5h-1zm177 0 1.5.5-1.5.5zm268 2 .5 2.5h-1zm-278 1 1.5.5-1.5.5zm-7 2 1.5.5-1.5.5zm-23 6 1.5.5-1.5.5zm-133 1 .5 1.5h-1zm129 0 1.5.5-1.5.5zm-4 1 1.5.5-1.5.5zm-228 2 1.5.5-1.5.5zm103 0 .5 1.5h-1zm-3 5 .5.5-2.5 2.5-.5-.5zm102 0 1.5.5-1.5.5zm342 0 .5 1.5h-1zm-347 1 1.5.5-1.5.5zm-5 1 1.5.5-1.5.5zm-5 1 1.5.5-1.5.5zm-6 1 1.5.5-1.5.5zm-5 1 1.5.5-1.5.5zm367 0 .5 1.5h-1zm-371 1 1.5.5-1.5.5zm-8 2 1.5.5-1.5.5zm-31 7 1.5.5-1.5.5zm8 0 6.5.5-6.5.5zm-50 1 .5 1.5h-1zm447 1 .5.5-4.5 4.5-.5-.5zm-454 10 1.5.5-1.5.5zm-64 2 .5 4.5h-1zm22 3 5.5.5-5.5.5zm9 1 1.5.5-1.5.5zm68 1 .5 1.5h-1zm-52 5 2.5.5-2.5.5zm52 5 .5 1.5h-1zm333 16 1.5.5-1.5.5zm-8 2 1.5.5-1.5.5zm-314 9 .5 4.5h-1zm254 27 1.5.5-1.5.5zm-12 3 1.5.5-1.5.5zm-6 1 2.5.5-2.5.5zm-6 1 1.5.5-1.5.5zm-7 1 1.5.5-1.5.5zm-8 1 2.5.5-2.5.5zm-8 1 2.5.5-2.5.5zm-7 1 1.5.5-1.5.5zm-7 1 2.5.5-2.5.5zm-6 1 1.5.5-1.5.5zm-6 1 1.5.5-1.5.5zm-6 1 2.5.5-2.5.5zm-5 1 1.5.5-1.5.5zm-5 1 1.5.5-1.5.5zm-5 1 1.5.5-1.5.5zm-173 1 .5 1.5h-1zm168 0 1.5.5-1.5.5zm-5 1 1.5.5-1.5.5zm-5 1 1.5.5-1.5.5zm-4 1 1.5.5-1.5.5zm-9 2 1.5.5-1.5.5zm-10 2 1.5.5-1.5.5zm-5 1 1.5.5-1.5.5zm-6 1 1.5.5-1.5.5zm-5 1 1.5.5-1.5.5zm-6 1 1.5.5-1.5.5zm-6 1 1.5.5-1.5.5zm-5 1 1.5.5-1.5.5zm-6 1 1.5.5-1.5.5zm-9 2 1.5.5-1.5.5zm-5 1 1.5.5-1.5.5zm-9 2 1.5.5-1.5.5zm-62 1 3.5 3.5-.5.5-3.5-3.5zm57 0 1.5.5-1.5.5zm-5 1 1.5.5-1.5.5zm-5 1 1.5.5-1.5.5zm-10 2 1.5.5-1.5.5zm-9 2 1.5.5-1.5.5zm-5 1 1.5.5-1.5.5z" opacity=".82"/><path fill="#fefefe" d="m515.5 311 7 3 10.5 10.5q9.3 11.2 16 25l3 9 1 16-1 1v11l-1 1v7l-1 1v5l-1 1v4l-1 1-1 7-4 10-5.5 5.5-8 5-20 9-6 2h-3l-1 1h-3l-1 1h-3l-1 1h-4l-1 1h-5l-1 1-8 1-3 2h-2l-8.5 6.5-12 19-4 4v1.5h-1.5l-5 5-13 6-9 3h-3l-7 3h-3l-7 3h-3l-4 2h-3l-4 2h-3l-5 2h-4l-1 1h-5l-1 1q-4.7-1.2-6 1h-6l-1 1h-6l-1 1-18 1-1 1h-10l-1 1h-11l-1 1h-13l-1 1h-12l-1 1h-12l-1 1-21 1-1 1-14 1-1 1h-4l-6 2h-7l-5.5-4.5v-8l2-6 5-8 1-3v-7l-3-9-7.5-8.5-14.5-5-1-2.5 5.5-6.5 20-10 3.5-3.5-2.5-2.5-10-2-2.5-1.5 1.5-1.5 6-1 1-1h5l1-1q4.7 1.3 6-1h7l1-1h8l1-1h12l1-1h22l1-1h23l1-1h12l1-1h7l1-1 8-1 12-5 11-10 9-5h2l3-2 12-4h3l4-2 10-2 21-7 11.5-10.5 7.5-8.5 10-5 21-7 16-8 9-6 12.5-12.5q8.1-11.9 18.5-21.5M57 367h4.5l4 2 9.5 8.5 4 7v3l-3 4 4.5 2.5h12l1-1h13q2.3 1 1.5 4-2.5-.5-3.5 2l-6 1-3.5 2.5 1 3.5h1.5l5 4 11.5 5.5-1.5 1.5h-10l-1-1-10-1-10.5-4 1 3.5 9 15 2 9q-2 1-1 5l-1.5 1.5h-3l-6.5-6.5-2-4v-9l-1.5-1.5-4-1-1 1h-4l-8 3h-5q-3-.5-2.5-4.5 3.1-7.9 9-13l1-4-3.5-3.5-10-2-1-1h-3l-3.5-2.5q-1.1-3.3 1.5-2.5l5-2h11l3-1 2.5-2.5-1-4-5-9z"/><path fill="#d5d6d6" d="m489.5 282 1.5.5-1.5.5zm-40 52 .5.5-5.5 5.5-.5-.5zm-405 15 1.5.5-1.5.5zm-2 7 2.5 2.5-.5.5-2.5-2.5zm534 40 .5 1.5h-1zm-444 1 .5 1.5h-1zm-104 7 .5.5-4.5 4.5-.5-.5zm549 0 .5 2.5h-1zm-554 7 .5 1.5h-1zm554 5 .5 2.5h-1zm-454 15 .5 2.5h-1zm-76 3 1.5.5-1.5.5zm121 0 5.5.5-5.5.5zm13 0 1.5.5-1.5.5zm-127 5 .5 1.5h-1zm0 3 .5 1.5h-1zm72 0 .5 1.5h-1zm-19 8 .5.5-2.5 2.5-.5-.5zm-34 1 1.5.5-1.5.5zm79 4 .5 2.5h-1zm0 6 .5 1.5h-1zm311 28 .5.5-6.5 6.5-.5-.5zm-306 16 .5.5-2.5 2.5-.5-.5zm-8 13 .5 1.5h-1zm235 5 1.5.5-1.5.5zm-8 1 1.5.5-1.5.5zm-8 1 1.5.5-1.5.5zm-7 1 1.5.5-1.5.5zm-72 14 1.5.5-1.5.5zm-22 4 1.5.5-1.5.5zm-85 17 1.5.5-1.5.5z" opacity=".965"/><path fill="#e7e8e8" d="m484.5 282 10 1 1 1 7 1 15 5h10l2.5 1q-1 4.7 2.5 6l3.5 2.5 17 27 10 20 3 10 2 3v3l3 7 1 8 2 5 1 9 1 1q-1.3 4.8 1 6v8l1 1v8l-1 1v6l-1 1-1 6q-2.6 7.4-8.5 11.5l-11 7-15 7-11 7-22 11h-2l-9 4h-3l-5 2h-4l-1 1h-3l-9 3q-9.6 6.4-17 15l-9 6-16 9h-2l-11 5h-3l-5 2h-4l-1 1-11 1-1 1h-7l-1 1-15 1-1 1h-6l-1 1h-5l-1 1h-5l-1 1-11 1-1 1h-4l-1 1h-4l-1 1h-4l-1 1-14 2-9 3h-4l-1 1h-4l-1 1h-4l-6 2-11 1-6 2-10 1-1 1h-5l-5 2h-4l-1 1h-4l-5 2h-4l-1 1h-4l-1 1h-4l-1 1-14 2-1 1-8 1-1 1q-4.8-1.2-6 1h-8q-8-2.5-12.5-8.5l-5-7-5-10-1-6-1-1v-9l1-1 1-6 12-15 1-3v-6q-1.7-.8-1-4l-10-19v-5l-1-3 1-1v-6l2-6 6.5-8.5 4-2h17l14-7h3l4-2h4l5-2 10-1 1-1h4l1-1h4l1-1h4l1-1 7-1 11-4h3l12-4h3l1-1 15-3 4-2h3l4-2h3l7-3h3l36-12 3-2 5-1 3-2 5-1 10-5h2l5-3h2l23-11 2-2 9-4 15-9 10-7 5.5-5.5 10-18v-2l4-7 3-10 4-8 3.5-3.5 3-2 6-1zm31.5 29q-11 10-19 22l-12 12-9 6-16 8-21 7-10 5-8 9-11 10-21 7-10 2-4 2h-3l-12 4-3 2h-2l-9 5-11 10-12 5-8 1-1 1h-7l-1 1h-12l-1 1h-23l-1 1h-22l-1 1h-12l-1 1h-8l-1 1h-7q-2 2-6 1l-1 1h-5l-1 1-6 1-2 2 3 1 10 2 2 3-3 3-20 10-6 7 1 2 15 5 7 9 3 9v7l-1 3-5 8-2 6v8l6 4h7l6-2h4l1-1 14-1 1-1 21-1 1-1h12l1-1h12l1-1h13l1-1h11l1-1h10l1-1 18-1 1-1h6l1-1h6q1-2 6-1l1-1h5l1-1h4l5-2h3l4-2h3l4-2h3l7-3h3l7-3h3l9-3 13-6 5-5h1v-1l4-4 12-19 9-7h2l3-2 8-1 1-1h5l1-1h4l1-1h3l1-1h3l1-1h3l6-2 20-9 8-5 5-5 4-10 1-7 1-1v-4l1-1v-5l1-1v-7l1-1v-11l1-1-1-16-3-9q-7-14-16-25l-10-11zM46.5 349l13 1 1 1h3l6 2 8 4 5.5 5.5 3 11.5 30.5 5 10 4 4.5 4.5 2 4v5q-2 1-1 5l4 9v6l-11 10-2 7 3 7v3.5h-2.5l-7 3h-3l-6 3-2.5 2.5-2 5.5h-3.5l-11-5-6-1-1-1h-8l-9 5-7 2-3.5-3.5v-10q2-1 1-5l-2.5-4.5-5-1-8 3-2.5-1v-3.5l4-9v-7q-1.5-4-8.5-2.5l-6 2q-3.5-1-2.5-6.5l13-12q1.7-1.8 1-6l-3.5-3.5q-6.9-.6-10.5-4.5v-4l3.5-3.5 16-3 5.5-4.5v-4l-7-9-1-5.5h4.5zM57 367l2 9 5 9 1 4-2 2-3 1H49l-5 2q-3-1-2 3l4 2h3l1 1 10 2 3 4-1 4q-6 5-9 13-1 3 3 4h5l8-3h4l1-1 4 1 1 2v9l2 4 7 6h3l1-1q-1-5 1-5l-2-9-9-15-1-4 11 4 10 1 1 1h10l1-1-11-6-5-4h-2l-1-3 4-3 6-1q0-3 3-2 1-3-1-4H94l-1 1H81l-5-2 3-4v-3l-4-7-9-9-4-2z"/><path fill="#231e1f" d="M203.5 133h10l1 1 7 1 4 2h3l9 3h4l1 1h4l1 1h4l6 2 9 1 5 2h4l1 1 15 3 4 2h3l4 2 21 4 11 5h2l9 5 18 13 46 40 24.5 24.5 21.5 26.5h5l4.5 2 1 4.5 1.5 1.5 5-1 11-6h5l3-1 1 1h6l18 6q4-1 5 1h7l7-3 2-2 7-1 7.5 6.5 12 27 2 6v3l3 7v3l2 4v3l1 1v3l1 1 3 15 1 1v4l1 1v3l1 1v3l1 1v3l1 1v3l3 9 1 9 1 1v27l-1 1v4l-1 1-1 7q-2.7 6.8-8.5 10.5l-21 13-40 20-2 2-23 12-18 16-20 12-28 12-24 8h-3l-4 2h-3l-8 3h-3l-9 3h-4l-9 3h-4l-1 1h-4l-1 1h-4l-1 1h-4l-6 2h-5l-1 1h-5l-1 1-11 1-1 1-14 1-1 1h-8l-1 1h-20l-1 1h-5l-1 1-8 1-1 1h-5l-6 2h-5l-1 1h-5l-1 1h-5l-1 1h-5l-6 2h-5l-1 1h-5l-1 1q-4.7-1.3-6 1h-6l-1 1h-26l-5-2-4.5-4.5-4-10-1-11-1-1v-23l1-1v-5l1-1 1-6 11-15 2-6q-2-1-1-5l-10-20q1-4-1-5v-10l1-1v-4l1-1 1-6 3-6 4.5-4.5q2.2-1.8 7-1l1-1h5l4-3h1.5v-27.5l-1-1 2.5-3.5 8.5-4.5v-29l1-1v-18l1-1v-7l3-8-3.5-4.5q-4.7-1.2-6 1h-8l-5-10-6 3-8 6q-15.9 15.6-35 28l-6.5 6.5-5 7-2 6 1.5 1.5 24 7q6.9 2.6 11.5 7.5l3 6v6l1 1v9l1 1v13l-4 9v6l-1 1v13q-1.7.8-1 4l-3.5 4.5-10 3-18 9h-8l-11-4h-10l-1 1h-6l-1 1h-17l-9-4-3.5-3.5-1-5-2.5-3.5q-6.1-1.4-8.5-6.5-2.2-2.8-1-9l3-6 1-5.5-2.5-1h-10l-4.5-3.5v-9l10-11 2-3v-2l-12-9v-8l6.5-6.5 12-5H37v-4.5l-6-9-2-8 2.5-2.5h11l1 1h18l1 1h7l5 2 8 6q5.9-10.6 15.5-17.5l2-4 2-10 1-1v-3l1-1v-3l1-1v-4l2-5v-4l1-1v-3l3-9v-4l5-15v-3l4-12 2-3v-2l14-28 2-2 13-25 15-23 16-20 8.5-8.5zm15.5 12-19 8-13 9-14 14-9 14-10 30-5 11-1 5-8 18-2 7-3 5-4 12-6 12-2 7-3 5v2l-2 3-3 11-2 3-4 12 1 1 26-26 15-10 12-6 5-1 10-6 13-6 5 1 2 4-2 6v3l-1 1v8l9 18 1 6 1 1v4l1 1v18q-2 0-1 5l-10 30v3l-2 4-2 11-1 1v5l-1 1v4q3-1 5 1h21l1-1h5l9-3h3l12-4 8-4h2l15-8h2l4-3 15-7 2-2 31-15h2l3-2 5-1 3-2 5-1 3-2 12-4h3l4-2h3l12-4h3l4-2h3l4-2h3l9-3 18-9 12-12 16-22 3-7v-6l-2-4-18-19-8-11-20-21-36-29-22-21-13-9-7-3h-3l-4-2-11-2-1-1h-3l-27-9h-3l-4-2h-3l-4-2-7-1-9-3-9-1-1-1h-6l-1-1zm263 137-8 4-3 3-5 10-1 5-6 12v2l-9 16-10 9-23 14-28 14h-2l-7 4-12 4-3 2h-2l-3 2-5 1-3 2-39 13h-3l-14 5h-3l-4 2-15 3-1 1h-3l-1 1h-3l-1 1h-3l-4 2h-3l-15 5-14 2-1 1h-4l-1 1h-5l-1 1h-4l-9 3h-3l-14 7h-17l-6 3-5 6-4 11v11l2 6 9 17v9q-4 7-10 13l-4 8v14q2 0 1 4l4 9 7 10q4 4 11 7h14l1-1 8-1 1-1 8-1 1-1h5l6-2h4l1-1h4l5-2 9-1 5-2h4l1-1 10-1 1-1 11-1 6-2h5l1-1h4l1-1h4l1-1 8-1 1-1h4l5-2 14-2 1-1h4l1-1h4l1-1h5l6-2h5l1-1h6l1-1h5l1-1h7l1-1h7l1-1h6l1-1h6l1-1h6l1-1h4l9-3h3l6-3h2l17-9 12-8 14-13 13-5h4l9-3h3l6-2 7-4h2l19-10 2-2 9-4 2-2 13-6 9-6 4-4 4-8 1-7 1-1v-19l-1-1v-6l-1-1v-4l-1-1v-4l-2-5v-4l-2-5v-3l-5-15-9-20-21-34-3-3-2-1-1-5-14-1-4-2h-3l-4-2h-3l-4-2h-4l-1-1zM44 349l-3 1q-1 4 1 7l6 7v5l-1 2-4 2q-4-1-4 1h-6l-6 2-4 5 1 4 11 4 3 4-1 4-6 5-8 9q-1 4 3 5h5l1-1 6-1 3 5-1 6-3 6v6h6l4-2h5l2 4v9l-1 1 1 7 3 2 7-1 9-5h11l14 6 5 1 2-5q3-4 8-6l6-1 8-3v-2l-3-7q-1-5 1-7l7-6 5-6v-4l-4-9v-7l1-1-1-5-2-3-3-4-12-5-10-1-1-1h-5l-1-1h-5l-1-1h-4l-3-2v-3l-2-6-5-6-5-3h-2l-9-4q-5 1-5-1z" opacity=".953"/></svg>